<?xml version="1.0" encoding="UTF-8"?>
<!DOCTYPE svg PUBLIC "-//W3C//DTD SVG 1.1//EN" "http://www.w3.org/Graphics/SVG/1.1/DTD/svg11.dtd">
<!-- Creator: CorelDRAW 2017 -->
<svg xmlns="http://www.w3.org/2000/svg" xml:space="preserve" width="8.4666mm" height="8.4666mm" version="1.1" style="shape-rendering:geometricPrecision; text-rendering:geometricPrecision; image-rendering:optimizeQuality; fill-rule:evenodd; clip-rule:evenodd"
viewBox="0 0 846.66 846.66"
 xmlns:xlink="http://www.w3.org/1999/xlink">
 <defs>
  <style type="text/css">
   <![CDATA[
    .fil0 {fill:#9DC91A}
   ]]>
  </style>
 </defs>
 <g id="Слой_x0020_1">
  <metadata id="CorelCorpID_0Corel-Layer"/>
  <path class="fil0" d="M150.73 307.95l0.33 20.53c-0.53,3.46 1.43,30.87 1.77,33.57 4.76,37.73 11.92,59.27 25.09,92.57 9.99,25.29 26.06,54.54 40.21,78.19 11.94,19.95 24.73,38.44 37.65,57.52l49.75 67.91c3.56,4.75 6.59,9.15 10.3,13.68 3.66,4.49 6.56,8.55 10.04,13.19 3.62,4.82 6.74,8.73 10.38,13.59 9.53,12.71 25.41,34.28 36.12,46.33l34.08 37.1c1.31,1.49 1.32,1.88 2.64,3.37 1.02,1.16 1.86,1.88 2.99,3l11.43 12.55c1.25,-0.92 4.27,-4.78 5.56,-6.43l38.48 -45.44c17.98,-20.64 45.75,-58.35 62.8,-81.09 23.86,-31.84 52.24,-72.1 73.33,-106.53l9.19 -14.79c1.63,-2.74 2.94,-4.7 4.47,-7.51 6.27,-11.51 15.64,-26.65 21.49,-38.46 1.47,-2.96 2.52,-5.05 4,-8 5.44,-10.88 10.78,-20.91 15.55,-32.41 18.26,-43.98 32.69,-81.83 36.46,-131.41 2.21,-29.07 1.5,-54.16 -6.04,-82.49 -6.5,-24.4 -12.7,-37.41 -24.5,-58.68 -1.14,-2.05 -2.15,-3.28 -3.2,-5.04 -1.14,-1.91 -1.91,-3.17 -3.18,-5.07 -4.58,-6.86 -9.16,-13.01 -14.33,-19.39l-15.69 -18.03c-1.94,-1.91 -2.13,-2.49 -3.78,-4.47l-12.7 -12.77c-11.17,-11.17 -23.26,-21.38 -36.53,-30.17 -94,-62.25 -212.64,-63.57 -307.11,-0.6 -3.59,2.39 -6.24,4.23 -9.68,6.81 -9.22,6.93 -27.97,22.4 -35.61,31.08 -21.49,24.4 -31.27,37.9 -47.04,69.12 -3.57,7.09 -6.78,15.74 -9.63,23.35 -9.09,24.28 -15.09,57.55 -15.09,85.32zm262.58 -117.48c-70.82,4.91 -128.73,65.88 -124.4,142.59 4.06,71.81 63.59,132.59 140.61,127.8 70.54,-4.37 128.34,-66.57 124.06,-143.04 -3.97,-70.95 -63.96,-132.63 -140.27,-127.35z"/>
 </g>
</svg>
