<?xml version="1.0" encoding="UTF-8"?>
<!DOCTYPE svg PUBLIC "-//W3C//DTD SVG 1.1//EN" "http://www.w3.org/Graphics/SVG/1.1/DTD/svg11.dtd">
<!-- Creator: CorelDRAW 2017 -->
<svg xmlns="http://www.w3.org/2000/svg" xml:space="preserve" width="8.4666mm" height="8.4666mm" version="1.1" style="shape-rendering:geometricPrecision; text-rendering:geometricPrecision; image-rendering:optimizeQuality; fill-rule:evenodd; clip-rule:evenodd"
viewBox="0 0 846.66 846.66"
 xmlns:xlink="http://www.w3.org/1999/xlink">
 <defs>
  <style type="text/css">
   <![CDATA[
    .fil0 {fill:#9DC91A}
   ]]>
  </style>
 </defs>
 <g id="Слой_x0020_1">
  <metadata id="CorelCorpID_0Corel-Layer"/>
  <path class="fil0" d="M188.98 39.55c-14.93,2.74 -23.18,14.12 -30.52,21.46l-77.65 77.65c-8.45,8.44 -17.85,16.87 -25.77,25.99 -6.34,7.29 -13.92,23.39 -15.36,36.18 -3.56,31.72 2.61,64.26 10.37,93.06 24.31,90.26 73.48,163.59 128.92,233.43 19.77,24.9 52.97,58.62 75.26,80.91l40.01 37.64c2.61,2.1 4.17,4.12 6.75,6.18 23.98,19.02 36.29,31.53 64.9,51.56 19.39,13.58 41.77,27.9 64.1,40.31 42.95,23.87 98.34,50.52 148.74,58.37 29.79,4.65 63.07,10.54 89.78,-2.57 14.26,-7 19.41,-14.26 28.53,-23.25 11.03,-10.88 100.16,-98.39 104.04,-103.9 8.31,-11.79 9.62,-26.94 1.34,-39.64 -7.35,-11.26 -16.52,-14.94 -29.23,-22.56 -42.76,-25.62 -89.02,-51.61 -130.66,-77.25 -11.89,-7.32 -21.78,-13.44 -40.1,-11.99 -25.85,2.04 -40.46,24.61 -59.82,43.96 -4.32,4.31 -8.87,8.39 -13.16,12.73 -4.55,4.59 -7.94,8.61 -17.58,6.65 -15.39,-3.13 -25.05,-7.84 -37.49,-14.31 -17.71,-9.22 -47.52,-29.75 -62.14,-42.3l-20.78 -18.05c-2.77,-2.83 -3.83,-4 -6.49,-6.43 -22.67,-20.71 -56.32,-56.1 -75.04,-80.28 -9.95,-12.85 -61.51,-84.54 -44.29,-103.05 29.19,-31.36 68.84,-53.95 48.87,-95.65l-35.69 -67.88c-6.76,-12.63 -48.41,-93.83 -54.18,-101.09 -6.7,-8.41 -17.65,-19.18 -35.66,-15.88z"/>
 </g>
</svg>
